<svg version="1.1" id="Layer_1" xmlns="http://www.w3.org/2000/svg" xmlns:xlink="http://www.w3.org/1999/xlink" x="0px" y="0px"
	 width="100%" viewBox="0 0 512 512" enable-background="new 0 0 512 512" xml:space="preserve">
<path fill="#1E73BE" opacity="1.000000" stroke="none" 
	d="
M513.000000,267.000000 
	C513.000000,271.024536 513.000000,275.049103 512.620239,279.728394 
	C511.169800,288.002808 510.172607,295.633636 509.014740,303.240021 
	C505.426300,326.813110 497.605896,349.027313 487.171753,370.369873 
	C477.797699,389.544067 466.128784,407.201447 452.153168,423.363983 
	C437.856964,439.897217 422.032501,454.727753 404.128510,467.283142 
	C386.280945,479.799072 367.143890,489.979828 346.701447,497.495392 
	C328.781311,504.083710 310.369720,508.954865 291.299194,511.018646 
	C287.176270,511.464844 283.098541,512.328613 279.000000,513.000000 
	C264.645782,513.000000 250.291550,513.000000 235.373749,512.681396 
	C234.173935,512.188721 233.537689,512.014709 232.717896,511.578674 
	C231.153137,509.877869 229.796860,508.414124 228.387024,507.003876 
	C190.409058,469.016510 152.422440,431.037689 114.453720,393.041046 
	C112.815315,391.401398 111.333313,389.605438 110.259354,387.784973 
	C197.013535,387.687683 283.286804,387.687683 369.591064,387.687683 
	C369.591064,339.016296 369.591064,291.029663 369.591064,242.145859 
	C360.468445,253.083008 352.023376,263.369019 343.369019,273.475800 
	C341.061035,276.171112 340.054443,278.847260 340.078125,282.437256 
	C340.232025,305.766479 340.162048,329.097168 340.146881,352.427399 
	C340.145752,354.177979 340.000488,355.928467 339.924133,357.636444 
	C272.582611,357.636444 205.824585,357.636444 138.800491,357.636444 
	C138.800491,290.447357 138.800491,223.542770 138.800491,156.079163 
	C141.030960,156.079163 142.985977,156.079163 144.940994,156.079163 
	C203.266541,156.079147 261.592133,156.104233 319.917419,155.981583 
	C322.109985,155.976974 325.039062,155.183975 326.368408,153.661331 
	C334.032623,144.882645 341.318176,135.773422 349.042297,126.949905 
	C354.330750,132.094009 359.308929,137.064423 364.146729,142.359741 
	C327.585327,186.576401 291.164276,230.468155 254.575439,274.562164 
	C230.472137,250.986786 206.929337,227.959641 183.643234,205.183548 
	C173.574280,215.223129 163.811844,224.957077 154.336792,234.404465 
	C188.724777,268.789276 223.318634,303.379944 258.072296,338.130402 
	C258.807587,337.342926 259.873260,336.306366 260.821045,335.171356 
	C291.142487,298.861023 321.553009,262.624329 351.726379,226.191299 
	C369.676758,204.517014 387.251465,182.531616 405.320862,160.815094 
	C407.386536,162.472916 409.217468,163.910507 410.852753,165.543961 
	C443.291290,197.946335 475.702667,230.375839 508.141663,262.777679 
	C509.656006,264.290314 511.375854,265.597260 513.000000,267.000000 
z"/>
<path fill="#2896FF" opacity="1.000000" stroke="none" 
	d="
M513.000000,266.531342 
	C511.375854,265.597260 509.656006,264.290314 508.141663,262.777679 
	C475.702667,230.375839 443.291290,197.946335 410.852753,165.543961 
	C409.217468,163.910507 407.386536,162.472916 405.177612,160.536896 
	C393.835785,151.259201 382.963074,142.388733 372.024261,133.464340 
	C369.140381,136.658844 366.713776,139.346848 364.287140,142.034836 
	C359.308929,137.064423 354.330750,132.094009 348.667480,126.843040 
	C347.318970,126.511787 346.655518,126.416779 345.992096,126.416710 
	C268.501343,126.408592 191.010590,126.405670 113.519844,126.420380 
	C112.082329,126.420654 110.644844,126.635155 109.094978,126.758659 
	C109.012299,128.499054 108.894897,129.818527 108.894760,131.138016 
	C108.886002,215.127991 108.881859,299.117981 108.923843,383.107910 
	C108.924644,384.699524 109.481201,386.290833 109.778458,387.882294 
	C111.333313,389.605438 112.815315,391.401398 114.453720,393.041046 
	C152.422440,431.037689 190.409058,469.016510 228.387024,507.003876 
	C229.796860,508.414124 231.153137,509.877869 232.284363,511.646606 
	C224.909042,510.999878 217.772202,510.100006 210.660492,509.032532 
	C187.387634,505.539215 165.400330,497.879364 144.351959,487.628021 
	C124.411026,477.916016 106.022614,465.784424 89.353226,450.995300 
	C73.735657,437.139343 59.599033,422.070679 47.447346,405.063080 
	C34.534874,386.990692 24.211956,367.546936 16.505484,346.804962 
	C9.850668,328.893555 4.981812,310.438141 2.958537,291.331940 
	C2.520825,287.198517 1.663856,283.109467 1.000000,279.000000 
	C1.000000,264.645782 1.000000,250.291550 1.372354,235.260681 
	C2.812161,226.632706 3.798095,218.669388 4.962436,210.732254 
	C8.380368,187.432693 16.107206,165.457413 26.347078,144.402588 
	C36.048824,124.454231 48.203499,106.077408 62.966610,89.376617 
	C77.025238,73.472786 92.364639,59.096149 109.682274,46.837006 
	C127.517677,34.211330 146.712112,24.043312 167.177444,16.501940 
	C185.112213,9.893066 203.554596,4.981020 222.665314,2.958553 
	C226.799652,2.521020 230.889603,1.663872 235.000000,1.000000 
	C249.354233,1.000000 263.708466,1.000000 278.739319,1.372354 
	C287.367249,2.812155 295.330536,3.798091 303.267639,4.962422 
	C326.567169,8.380327 348.542480,16.107170 369.597321,26.347021 
	C389.545654,36.048756 407.922516,48.203400 424.623291,62.966511 
	C440.527130,77.025131 454.903717,92.364586 467.162903,109.682213 
	C479.788635,127.517609 489.956573,146.712097 497.497986,167.177414 
	C504.106903,185.112183 509.018982,203.554565 511.041504,222.665298 
	C511.479004,226.799637 512.336121,230.889587 513.000000,235.000000 
	C513.000000,245.354233 513.000000,255.708450 513.000000,266.531342 
z"/>
<path fill="#FFFFFF" opacity="1.000000" stroke="none" 
	d="
M234.531342,1.000000 
	C230.889603,1.663872 226.799652,2.521020 222.665314,2.958553 
	C203.554596,4.981020 185.112213,9.893066 167.177444,16.501940 
	C146.712112,24.043312 127.517677,34.211330 109.682274,46.837006 
	C92.364639,59.096149 77.025238,73.472786 62.966610,89.376617 
	C48.203499,106.077408 36.048824,124.454231 26.347078,144.402588 
	C16.107206,165.457413 8.380368,187.432693 4.962436,210.732254 
	C3.798095,218.669388 2.812161,226.632706 1.372354,234.792023 
	C1.000000,157.072952 1.000000,79.145912 1.000000,1.000000 
	C78.687424,1.000000 156.375061,1.000000 234.531342,1.000000 
z"/>
<path fill="#FFFFFF" opacity="1.000000" stroke="none" 
	d="
M513.000000,234.531342 
	C512.336121,230.889587 511.479004,226.799637 511.041504,222.665298 
	C509.018982,203.554565 504.106903,185.112183 497.497986,167.177414 
	C489.956573,146.712097 479.788635,127.517609 467.162903,109.682213 
	C454.903717,92.364586 440.527130,77.025131 424.623291,62.966511 
	C407.922516,48.203400 389.545654,36.048756 369.597321,26.347021 
	C348.542480,16.107170 326.567169,8.380327 303.267639,4.962422 
	C295.330536,3.798091 287.367249,2.812155 279.207947,1.372354 
	C356.927032,1.000000 434.854095,1.000000 513.000000,1.000000 
	C513.000000,78.687424 513.000000,156.375061 513.000000,234.531342 
z"/>
<path fill="#FFFFFF" opacity="1.000000" stroke="none" 
	d="
M1.000000,279.468658 
	C1.663856,283.109467 2.520825,287.198517 2.958537,291.331940 
	C4.981812,310.438141 9.850668,328.893555 16.505484,346.804962 
	C24.211956,367.546936 34.534874,386.990692 47.447346,405.063080 
	C59.599033,422.070679 73.735657,437.139343 89.353226,450.995300 
	C106.022614,465.784424 124.411026,477.916016 144.351959,487.628021 
	C165.400330,497.879364 187.387634,505.539215 210.660492,509.032532 
	C217.772202,510.100006 224.909042,510.999878 232.467896,511.908600 
	C233.537689,512.014709 234.173935,512.188721 234.905090,512.681396 
	C157.072968,513.000000 79.145927,513.000000 1.000000,513.000000 
	C1.000000,435.312561 1.000000,357.624939 1.000000,279.468658 
z"/>
<path fill="#FFFFFF" opacity="1.000000" stroke="none" 
	d="
M279.468658,513.000000 
	C283.098541,512.328613 287.176270,511.464844 291.299194,511.018646 
	C310.369720,508.954865 328.781311,504.083710 346.701447,497.495392 
	C367.143890,489.979828 386.280945,479.799072 404.128510,467.283142 
	C422.032501,454.727753 437.856964,439.897217 452.153168,423.363983 
	C466.128784,407.201447 477.797699,389.544067 487.171753,370.369873 
	C497.605896,349.027313 505.426300,326.813110 509.014740,303.240021 
	C510.172607,295.633636 511.169800,288.002808 512.620239,280.191589 
	C513.000000,357.593842 513.000000,435.187714 513.000000,513.000000 
	C435.312561,513.000000 357.624939,513.000000 279.468658,513.000000 
z"/>
<path fill="#FCFDFE" opacity="1.000000" stroke="none" 
	d="
M110.259361,387.784973 
	C109.481201,386.290833 108.924644,384.699524 108.923843,383.107910 
	C108.881859,299.117981 108.886002,215.127991 108.894760,131.138016 
	C108.894897,129.818527 109.012299,128.499054 109.094978,126.758659 
	C110.644844,126.635155 112.082329,126.420654 113.519844,126.420380 
	C191.010590,126.405670 268.501343,126.408592 345.992096,126.416710 
	C346.655518,126.416779 347.318970,126.511787 348.357239,126.669342 
	C341.318176,135.773422 334.032623,144.882645 326.368408,153.661331 
	C325.039062,155.183975 322.109985,155.976974 319.917419,155.981583 
	C261.592133,156.104233 203.266541,156.079147 144.940994,156.079163 
	C142.985977,156.079163 141.030960,156.079163 138.800491,156.079163 
	C138.800491,223.542770 138.800491,290.447357 138.800491,357.636444 
	C205.824585,357.636444 272.582611,357.636444 339.924133,357.636444 
	C340.000488,355.928467 340.145752,354.177979 340.146881,352.427399 
	C340.162048,329.097168 340.232025,305.766479 340.078125,282.437256 
	C340.054443,278.847260 341.061035,276.171112 343.369019,273.475800 
	C352.023376,263.369019 360.468445,253.083008 369.591064,242.145859 
	C369.591064,291.029663 369.591064,339.016296 369.591064,387.687683 
	C283.286804,387.687683 197.013535,387.687683 110.259361,387.784973 
z"/>
<path fill="#FDFEFF" opacity="1.000000" stroke="none" 
	d="
M364.146729,142.359741 
	C366.713776,139.346848 369.140381,136.658844 372.024261,133.464340 
	C382.963074,142.388733 393.835785,151.259201 404.851746,160.407867 
	C387.251465,182.531616 369.676758,204.517014 351.726379,226.191299 
	C321.553009,262.624329 291.142487,298.861023 260.821045,335.171356 
	C259.873260,336.306366 258.807587,337.342926 258.072296,338.130402 
	C223.318634,303.379944 188.724777,268.789276 154.336792,234.404465 
	C163.811844,224.957077 173.574280,215.223129 183.643234,205.183548 
	C206.929337,227.959641 230.472137,250.986786 254.575439,274.562164 
	C291.164276,230.468155 327.585327,186.576401 364.146729,142.359741 
z"/>
</svg>